<svg width="310" height="36" viewBox="0 0 310 36" fill="none" xmlns="http://www.w3.org/2000/svg">
<path d="M14.2286 16.319C18.1483 16.319 20.4218 14.2124 20.4218 10.6676C20.4218 7.12282 18.1483 5.2072 14.2286 5.2072H6.67861V16.319H14.2286ZM28.602 35.5228H21.1484L13.3572 21.1557H6.67861V35.5228H0V0.0839844H13.8879C22.3093 0.0839844 27.3416 3.86747 27.3416 10.1902C27.3416 17.0381 22.4058 21.0602 14.0326 21.0602V21.1557C17.9524 21.1557 21.4379 22.9759 23.2259 26.1357L28.599 35.5228H28.602Z" fill="#00EEDB"/>
<path d="M31.5938 11.4816H37.9829V35.5222H31.5938V11.4816ZM31.5938 0.897949H37.9829V6.8835H31.5938V0.897949Z" fill="#00EEDB"/>
<path d="M65.8139 11.4814L59.473 35.5221H47.4243L41.0352 11.4814H47.8585L53.4245 35.0924H53.521L58.9905 11.4814H65.8139Z" fill="#00EEDB"/>
<path d="M73.0101 22.0655H84.4316C84.0456 18.0433 81.9652 15.7428 78.7691 15.7428C75.573 15.7428 73.4443 18.0403 73.0101 22.0655ZM90.673 24.2198H72.9618C73.203 28.6269 75.3318 31.2109 78.7691 31.2109C81.7692 31.2109 83.8496 29.5817 84.4798 26.947H90.673C89.8016 32.6461 85.3482 35.9999 78.7691 35.9999C71.2191 35.9999 66.7656 31.3541 66.7656 23.5007C66.7656 15.6473 71.2191 11.0015 78.7691 11.0015C86.3191 11.0015 90.673 15.5995 90.673 23.5007V24.2198Z" fill="#00EEDB"/>
<path d="M112.215 11.7679L110.376 17.4192C109.408 16.8911 108.199 16.5569 106.99 16.5569C103.263 16.5569 101.038 19.5736 101.038 24.649V35.5191H94.6484V11.4784H101.038V21.3907H101.134C101.134 14.8293 103.893 10.998 108.491 10.998C109.896 10.998 111.25 11.2845 112.218 11.7649" fill="#00EEDB"/>
<path d="M139.069 21.7492L132.972 0.581997H132.876L126.731 21.7492H139.072H139.069ZM140.522 26.8724H125.229L122.763 35.445H116.084L127.216 0.00610352H139.023L150.104 35.445H142.991L140.525 26.8724H140.522Z" fill="#00EEDB"/>
<path d="M169.616 23.423C169.616 18.9682 167.343 15.9038 163.471 15.9038C159.6 15.9038 157.324 18.7295 157.324 23.423C157.324 28.1166 159.597 30.8945 163.471 30.8945C167.346 30.8945 169.616 27.8301 169.616 23.423ZM175.665 0.00298674V35.4418H169.276V27.1558H169.179C169.179 32.6639 165.938 35.9193 160.517 35.9193C154.42 35.9193 150.838 31.2734 150.838 23.42C150.838 15.5666 154.42 10.9208 160.517 10.9208C165.938 10.9208 169.179 14.1761 169.179 19.6365H169.276V0H175.665V0.00298674Z" fill="#00EEDB"/>
<path d="M203.361 11.4041L197.02 35.4447H184.971L178.582 11.4041H185.405L190.971 35.0121H191.068L196.537 11.4041H203.361Z" fill="#00EEDB"/>
<path d="M206.82 11.4046H213.209V35.4452H206.82V11.4046ZM206.82 0.00634766H213.209V6.80649H206.82V0.00634766Z" fill="#00EEDB"/>
<path d="M216.666 27.6389H222.618C222.618 30.3214 224.505 31.9028 227.699 31.9028C230.892 31.9028 232.586 30.754 232.586 28.7429C232.586 26.2037 229.731 25.7263 226.538 25.1981C222.329 24.5268 217.293 23.7122 217.293 18.207C217.293 13.6567 221.165 10.9265 227.699 10.9265C234.232 10.9265 238.056 13.8477 238.056 18.8277H232.104C232.104 16.2884 230.506 14.8532 227.699 14.8532C225.036 14.8532 223.441 15.9065 223.441 17.6789C223.441 19.8332 226.104 20.2659 229.2 20.791C233.506 21.5101 238.734 22.3725 238.734 28.0238C238.734 32.9561 234.621 35.925 227.702 35.925C220.782 35.925 216.669 32.8606 216.669 27.6389" fill="#00EEDB"/>
<path d="M260.014 23.4233C260.014 18.7298 257.741 15.9041 253.869 15.9041C249.998 15.9041 247.724 18.7298 247.724 23.4233C247.724 28.1169 249.998 30.8948 253.869 30.8948C257.741 30.8948 260.014 28.1169 260.014 23.4233ZM241.188 23.4233C241.188 15.5699 245.93 10.9241 253.866 10.9241C261.802 10.9241 266.497 15.5699 266.497 23.4233C266.497 31.2767 261.802 35.9225 253.866 35.9225C245.93 35.9225 241.188 31.2767 241.188 23.4233Z" fill="#00EEDB"/>
<path d="M287.32 11.6907L285.481 17.3421C284.513 16.814 283.304 16.4798 282.095 16.4798C278.368 16.4798 276.143 19.4964 276.143 24.5719V35.442H269.754V11.4013H276.143V21.3136H276.24C276.24 14.7521 278.998 10.9209 283.597 10.9209C285.002 10.9209 286.355 11.2073 287.323 11.6877" fill="#00EEDB"/>
<path d="M287.93 27.6389H293.882C293.882 30.3214 295.769 31.9028 298.962 31.9028C302.155 31.9028 303.85 30.754 303.85 28.7429C303.85 26.2037 300.994 25.7263 297.801 25.1981C293.592 24.5268 288.56 23.7122 288.56 18.207C288.56 13.6567 292.431 10.9265 298.965 10.9265C305.499 10.9265 309.322 13.8477 309.322 18.8277H303.37C303.37 16.2884 301.772 14.8532 298.965 14.8532C296.303 14.8532 294.708 15.9065 294.708 17.6789C294.708 19.8332 297.37 20.2659 300.467 20.791C304.776 21.5101 310.001 22.3725 310.001 28.0238C310.001 32.9561 305.888 35.925 298.968 35.925C292.048 35.925 287.936 32.8606 287.936 27.6389" fill="#00EEDB"/>
</svg>
