<svg width="533" height="304" viewBox="0 0 533 304" fill="none" xmlns="http://www.w3.org/2000/svg">
<path d="M0.498047 272.334V304C17.9843 304 32.1642 289.824 32.1642 272.334H0.498047Z" fill="white" fill-opacity="0.7"/>
<path d="M76.4986 272.334V228.001C52.0158 228.001 32.166 247.848 32.166 272.334H76.4986Z" fill="white" fill-opacity="0.7"/>
<path d="M76.499 272.334V304C93.9853 304 108.165 289.824 108.165 272.334H76.499Z" fill="white" fill-opacity="0.7"/>
<path d="M152.5 272.334V228.001C128.017 228.001 108.167 247.848 108.167 272.334H152.5Z" fill="white" fill-opacity="0.7"/>
<path d="M76.499 196.333V228C93.9853 228 108.165 213.824 108.165 196.333H76.499Z" fill="white" fill-opacity="0.7"/>
<path d="M152.5 196.334V152.001C128.017 152.001 108.167 171.847 108.167 196.334H152.5Z" fill="white" fill-opacity="0.7"/>
<path d="M152.499 272.334V304C169.985 304 184.165 289.824 184.165 272.334H152.499Z" fill="white" fill-opacity="0.7"/>
<path d="M228.501 272.334V228.001C204.018 228.001 184.168 247.848 184.168 272.334H228.501Z" fill="white" fill-opacity="0.7"/>
<path d="M152.499 196.333V228C169.985 228 184.165 213.824 184.165 196.333H152.499Z" fill="white" fill-opacity="0.7"/>
<path d="M228.501 196.334V152.001C204.018 152.001 184.168 171.847 184.168 196.334H228.501Z" fill="white" fill-opacity="0.7"/>
<path d="M152.499 120.333V151.999C169.985 151.999 184.165 137.823 184.165 120.333H152.499Z" fill="white" fill-opacity="0.7"/>
<path d="M228.501 120.333V76.0005C204.018 76.0005 184.168 95.8466 184.168 120.333H228.501Z" fill="white" fill-opacity="0.7"/>
<path d="M228.5 272.334V304C245.986 304 260.166 289.824 260.166 272.334H228.5Z" fill="white" fill-opacity="0.7"/>
<path d="M304.501 272.334V228.001C280.018 228.001 260.168 247.848 260.168 272.334H304.501Z" fill="white" fill-opacity="0.7"/>
<path d="M228.5 196.333V228C245.986 228 260.166 213.824 260.166 196.333H228.5Z" fill="white" fill-opacity="0.7"/>
<path d="M304.501 196.334V152.001C280.018 152.001 260.168 171.847 260.168 196.334H304.501Z" fill="white" fill-opacity="0.7"/>
<path d="M228.5 120.333V151.999C245.986 151.999 260.166 137.823 260.166 120.333H228.5Z" fill="white" fill-opacity="0.7"/>
<path d="M304.501 120.333V76.0005C280.018 76.0005 260.168 95.8466 260.168 120.333H304.501Z" fill="white" fill-opacity="0.7"/>
<path d="M228.5 44.3325V75.9986C245.986 75.9986 260.166 61.8227 260.166 44.3325H228.5Z" fill="white" fill-opacity="0.7"/>
<path d="M304.501 44.3326V0C280.018 0 260.168 19.8461 260.168 44.3326H304.501Z" fill="white" fill-opacity="0.7"/>
<path d="M304.5 272.334V304C321.986 304 336.166 289.824 336.166 272.334H304.5Z" fill="white" fill-opacity="0.7"/>
<path d="M380.501 272.334V228.001C356.018 228.001 336.168 247.848 336.168 272.334H380.501Z" fill="white" fill-opacity="0.7"/>
<path d="M304.5 196.333V228C321.986 228 336.166 213.824 336.166 196.333H304.5Z" fill="white" fill-opacity="0.7"/>
<path d="M380.501 196.334V152.001C356.018 152.001 336.168 171.847 336.168 196.334H380.501Z" fill="white" fill-opacity="0.7"/>
<path d="M304.5 120.333V151.999C321.986 151.999 336.166 137.823 336.166 120.333H304.5Z" fill="white" fill-opacity="0.7"/>
<path d="M380.501 120.333V76.0005C356.018 76.0005 336.168 95.8466 336.168 120.333H380.501Z" fill="white" fill-opacity="0.7"/>
<path d="M304.5 44.3325V75.9986C321.986 75.9986 336.166 61.8227 336.166 44.3325H304.5Z" fill="white" fill-opacity="0.7"/>
<path d="M380.501 44.3326V0C356.018 0 336.168 19.8461 336.168 44.3326H380.501Z" fill="white" fill-opacity="0.7"/>
<path d="M380.5 272.334V304C397.986 304 412.166 289.824 412.166 272.334H380.5Z" fill="white" fill-opacity="0.7"/>
<path d="M456.501 272.334V228.001C432.018 228.001 412.168 247.848 412.168 272.334H456.501Z" fill="white" fill-opacity="0.7"/>
<path d="M380.5 196.333V228C397.986 228 412.166 213.824 412.166 196.333H380.5Z" fill="white" fill-opacity="0.7"/>
<path d="M456.501 196.334V152.001C432.018 152.001 412.168 171.847 412.168 196.334H456.501Z" fill="white" fill-opacity="0.7"/>
<path d="M380.5 120.333V151.999C397.986 151.999 412.166 137.823 412.166 120.333H380.5Z" fill="white" fill-opacity="0.7"/>
<path d="M456.501 120.333V76.0005C432.018 76.0005 412.168 95.8466 412.168 120.333H456.501Z" fill="white" fill-opacity="0.7"/>
<path d="M380.5 44.3325V75.9986C397.986 75.9986 412.166 61.8227 412.166 44.3325H380.5Z" fill="white" fill-opacity="0.7"/>
<path d="M456.501 44.3326V0C432.018 0 412.168 19.8461 412.168 44.3326H456.501Z" fill="white" fill-opacity="0.7"/>
<path d="M456.5 272.334V304C473.986 304 488.166 289.824 488.166 272.334H456.5Z" fill="white" fill-opacity="0.7"/>
<path d="M532.501 272.334V228.001C508.018 228.001 488.168 247.848 488.168 272.334H532.501Z" fill="white" fill-opacity="0.7"/>
<path d="M456.5 196.333V228C473.986 228 488.166 213.824 488.166 196.333H456.5Z" fill="white" fill-opacity="0.7"/>
<path d="M532.501 196.334V152.001C508.018 152.001 488.168 171.847 488.168 196.334H532.501Z" fill="white" fill-opacity="0.7"/>
<path d="M456.5 120.333V151.999C473.986 151.999 488.166 137.823 488.166 120.333H456.5Z" fill="white" fill-opacity="0.7"/>
<path d="M532.501 120.333V76.0005C508.018 76.0005 488.168 95.8466 488.168 120.333H532.501Z" fill="white" fill-opacity="0.7"/>
<path d="M456.5 44.3325V75.9986C473.986 75.9986 488.166 61.8227 488.166 44.3325H456.5Z" fill="white" fill-opacity="0.7"/>
<path d="M532.501 44.3326V0C508.018 0 488.168 19.8461 488.168 44.3326H532.501Z" fill="white" fill-opacity="0.7"/>
</svg>
