<svg width="310" height="90" viewBox="0 0 310 90" fill="none" xmlns="http://www.w3.org/2000/svg">
<path d="M0 70.6899V89.1419C10.1893 89.1419 18.4519 80.8815 18.4519 70.6899H0Z" fill="white" fill-opacity="0.7"/>
<path d="M44.2858 70.6899V44.8572C30.0196 44.8572 18.4531 56.4215 18.4531 70.6899H44.2858Z" fill="white" fill-opacity="0.7"/>
<path d="M44.2852 70.6899V89.1419C54.4744 89.1419 62.7371 80.8815 62.7371 70.6899H44.2852Z" fill="white" fill-opacity="0.7"/>
<path d="M88.571 70.6899V44.8572C74.3048 44.8572 62.7383 56.4215 62.7383 70.6899H88.571Z" fill="white" fill-opacity="0.7"/>
<path d="M44.2852 26.4041V44.856C54.4744 44.856 62.7371 36.5956 62.7371 26.4041H44.2852Z" fill="white" fill-opacity="0.7"/>
<path d="M88.571 26.4042V0.571533C74.3048 0.571533 62.7383 12.1359 62.7383 26.4042H88.571Z" fill="white" fill-opacity="0.7"/>
<path d="M88.5723 70.6899V89.1419C98.7616 89.1419 107.024 80.8815 107.024 70.6899H88.5723Z" fill="white" fill-opacity="0.7"/>
<path d="M132.858 70.6901V44.8574C118.592 44.8574 107.025 56.4218 107.025 70.6901H132.858Z" fill="white" fill-opacity="0.7"/>
<path d="M88.5723 26.4038V44.8557C98.7616 44.8557 107.024 36.5954 107.024 26.4038H88.5723Z" fill="white" fill-opacity="0.7"/>
<path d="M132.858 26.404V0.571289C118.592 0.571289 107.025 12.1356 107.025 26.404H132.858Z" fill="white" fill-opacity="0.7"/>
<path d="M132.859 70.6899V89.1419C143.049 89.1419 151.311 80.8815 151.311 70.6899H132.859Z" fill="white" fill-opacity="0.7"/>
<path d="M177.145 70.6901V44.8574C162.879 44.8574 151.312 56.4218 151.312 70.6901H177.145Z" fill="white" fill-opacity="0.7"/>
<path d="M132.859 26.4038V44.8557C143.049 44.8557 151.311 36.5954 151.311 26.4038H132.859Z" fill="white" fill-opacity="0.7"/>
<path d="M177.145 26.404V0.571289C162.879 0.571289 151.312 12.1356 151.312 26.404H177.145Z" fill="white" fill-opacity="0.7"/>
<path d="M177.141 70.6899V89.1419C187.33 89.1419 195.593 80.8815 195.593 70.6899H177.141Z" fill="white" fill-opacity="0.7"/>
<path d="M221.426 70.6901V44.8574C207.16 44.8574 195.594 56.4218 195.594 70.6901H221.426Z" fill="white" fill-opacity="0.7"/>
<path d="M177.141 26.4038V44.8557C187.33 44.8557 195.593 36.5954 195.593 26.4038H177.141Z" fill="white" fill-opacity="0.7"/>
<path d="M221.426 26.404V0.571289C207.16 0.571289 195.594 12.1356 195.594 26.404H221.426Z" fill="white" fill-opacity="0.7"/>
<path d="M221.428 70.6899V89.1419C231.617 89.1419 239.88 80.8815 239.88 70.6899H221.428Z" fill="white" fill-opacity="0.7"/>
<path d="M265.716 70.6901V44.8574C251.449 44.8574 239.883 56.4218 239.883 70.6901H265.716Z" fill="white" fill-opacity="0.7"/>
<path d="M221.428 26.4038V44.8557C231.617 44.8557 239.88 36.5954 239.88 26.4038H221.428Z" fill="white" fill-opacity="0.7"/>
<path d="M265.716 26.404V0.571289C251.449 0.571289 239.883 12.1356 239.883 26.404H265.716Z" fill="white" fill-opacity="0.7"/>
<path d="M265.715 70.6899V89.1419C275.904 89.1419 284.167 80.8815 284.167 70.6899H265.715Z" fill="white" fill-opacity="0.7"/>
<path d="M310.001 70.6899V44.8572C295.734 44.8572 284.168 56.4215 284.168 70.6899H310.001Z" fill="white" fill-opacity="0.7"/>
<path d="M265.715 26.4041V44.856C275.904 44.856 284.167 36.5956 284.167 26.4041H265.715Z" fill="white" fill-opacity="0.7"/>
<path d="M310.001 26.4042V0.571533C295.734 0.571533 284.168 12.1359 284.168 26.4042H310.001Z" fill="white" fill-opacity="0.7"/>
</svg>
