<svg width="168" height="32" viewBox="0 0 168 32" fill="none" xmlns="http://www.w3.org/2000/svg">
<g id="Group 3">
<path id="Vector" d="M20.0426 18.8954L14.8009 0.505359H14.718L9.43479 18.8954H20.0452H20.0426ZM21.2921 23.3464H8.14381L6.02328 30.7942H0.28125L9.85217 0.00502396H20.0037L29.5306 30.7942H23.4153L21.2947 23.3464H21.2921Z" fill="#006166"/>
<path id="Vector_2" d="M46.3091 20.3498C46.3091 16.4795 44.3545 13.8171 41.026 13.8171C37.6974 13.8171 35.7402 16.2721 35.7402 20.3498C35.7402 24.4276 37.6948 26.841 41.026 26.841C44.3571 26.841 46.3091 24.1787 46.3091 20.3498ZM51.5094 0.00259487V30.7918H46.0162V23.5929H45.9332C45.9332 28.3783 43.1465 31.2065 38.4855 31.2065C33.2438 31.2065 30.1641 27.1703 30.1641 20.3472C30.1641 13.5242 33.2438 9.48794 38.4855 9.48794C43.1465 9.48794 45.9332 12.3162 45.9332 17.0602H46.0162V0H51.5094V0.00259487Z" fill="#006166"/>
<path id="Vector_3" d="M75.3194 9.90791L69.8678 30.7944H59.5088L54.0156 9.90791H59.8821L64.6675 30.4185H64.7505L69.453 9.90791H75.3194Z" fill="#006166"/>
<path id="Vector_4" d="M78.293 9.90791H83.7861V30.7944H78.293V9.90791ZM78.293 0.00518799H83.7861V5.91313H78.293V0.00518799Z" fill="#006166"/>
<path id="Vector_5" d="M86.7578 24.0129H91.8751C91.8751 26.3434 93.4979 27.7173 96.2432 27.7173C98.9884 27.7173 100.445 26.7193 100.445 24.972C100.445 22.7659 97.9904 22.3512 95.2451 21.8923C91.6262 21.309 87.297 20.6013 87.297 15.8185C87.297 11.8652 90.6256 9.49318 96.2432 9.49318C101.861 9.49318 105.148 12.0311 105.148 16.3577H100.031C100.031 14.1516 98.6566 12.9047 96.2432 12.9047C93.9541 12.9047 92.5828 13.8198 92.5828 15.3596C92.5828 17.2313 94.8718 17.6072 97.5342 18.0634C101.236 18.6882 105.731 19.4374 105.731 24.3473C105.731 28.6324 102.195 31.2118 96.2458 31.2118C90.2963 31.2118 86.7604 28.5494 86.7604 24.0129" fill="#006166"/>
<path id="Vector_6" d="M124.03 20.3499C124.03 16.2721 122.076 13.8172 118.747 13.8172C115.419 13.8172 113.464 16.2721 113.464 20.3499C113.464 24.4276 115.419 26.8411 118.747 26.8411C122.076 26.8411 124.03 24.4276 124.03 20.3499ZM107.844 20.3499C107.844 13.5268 111.922 9.49056 118.745 9.49056C125.568 9.49056 129.604 13.5268 129.604 20.3499C129.604 27.1729 125.568 31.2092 118.745 31.2092C111.922 31.2092 107.844 27.1729 107.844 20.3499Z" fill="#006166"/>
<path id="Vector_7" d="M147.503 10.1568L145.922 15.0667C145.09 14.6078 144.05 14.3175 143.011 14.3175C139.807 14.3175 137.894 16.9384 137.894 21.3479V30.7918H132.4V9.90534H137.894V18.5171H137.977C137.977 12.8165 140.349 9.48798 144.302 9.48798C145.51 9.48798 146.674 9.73684 147.506 10.1542" fill="#006166"/>
<path id="Vector_8" d="M148.025 24.0129H153.143C153.143 26.3434 154.765 27.7173 157.511 27.7173C160.256 27.7173 161.713 26.7193 161.713 24.972C161.713 22.7659 159.258 22.3512 156.513 21.8923C152.894 21.309 148.567 20.6013 148.567 15.8185C148.567 11.8652 151.896 9.49318 157.513 9.49318C163.131 9.49318 166.418 12.0311 166.418 16.3577H161.301C161.301 14.1516 159.927 12.9047 157.513 12.9047C155.224 12.9047 153.853 13.8198 153.853 15.3596C153.853 17.2313 156.142 17.6072 158.804 18.0634C162.509 18.6882 167.001 19.4374 167.001 24.3473C167.001 28.6324 163.465 31.2118 157.516 31.2118C151.567 31.2118 148.031 28.5494 148.031 24.0129" fill="#006166"/>
</g>
</svg>
